# xmcd
#
# Track frame offsets:
#	150
#	11122
#	25323
#	37814
#	53222
#	65548
#	80936
#	93879
#	107193
#	119179
#	132220
#	143881
#	162255
#	170161
#	178078
#	191092
#	202381
#	217719
#	230955
#	244402
#	255486
#	269415
#	280338
#
# Disc length: 3901 seconds
#
# Revision: 2
# Processed by: cddbd v1.4PL0 Copyright (c) Steve Scherf et al.
# Submitted via: audiograbber 1.81.03
#
DISCID=6b0f3b17
DTITLE=Gyermekdalok - Válogatás
DYEAR=1900
DGENRE=
TTITLE0=Joós Jutka - Icipici kis mese
TTITLE1=Harsányi Együttes - Hüvelyk Matyi
TTITLE2=Psota Irén - Két kicsi kecske
TTITLE3=Gálcsiki János - Elszegõdnék Budapestre mackónak
TTITLE4=Hópehely Énekegyüttes - Hópille száll
TTITLE5=Kovács Erzsi - Pancsoló kisgyerek
TTITLE6=Simon Tamás - Kérek egy kiskutyát
TTITLE7=Rátonyi Hajnal, Rátonyi Róbert - Ígérem, jó leszek
TTITLE8=Ella Miki - A Tenkes kapitánya
TTITLE9=Artner Erzsi - Ha vége lesz az iskolának
TTITLE10=Joós Judit - Születésnapi kívánság
TTITLE11=Diósi Ági, Iván Jutka - Ovi-beat
TTITLE12=Varannai István - Mehemed
TTITLE13=Neményi Béla - Foxi Maxi matróz lett
TTITLE14=Joós Jutka - Szegény teenagerek
TTITLE15=Zalatnay Sarolta, Csákányi László - Fáj a fogam
TTITLE16=Kovács Eszti - Eperfagyi
TTITLE17=Koncz Zsuzsa, Gergely Ági - Gézengúz
TTITLE18=Hóvirág Duó - Kérek egy autógrammot
TTITLE19=Zalatnay Sarolta - Jaj, a matek
TTITLE20=Kószás László - Apu, mesélj
TTITLE21=Zalatnay Sarolta - Anyuci
TTITLE22=Hóvirág Duó - Nagymami
EXTD=
EXTT0=
EXTT1=
EXTT2=
EXTT3=
EXTT4=
EXTT5=
EXTT6=
EXTT7=
EXTT8=
EXTT9=
EXTT10=
EXTT11=
EXTT12=
EXTT13=
EXTT14=
EXTT15=
EXTT16=
EXTT17=
EXTT18=
EXTT19=
EXTT20=
EXTT21=
EXTT22=
PLAYORDER=
